<svg id="Layer_1" data-name="Layer 1" xmlns="http://www.w3.org/2000/svg" viewBox="0 0 100 100"><defs><style>.cls-1{fill:#f0f2ff;}.cls-10,.cls-12,.cls-2,.cls-9{fill:none;}.cls-12,.cls-2,.cls-3,.cls-5,.cls-8,.cls-9{stroke:#4550e5;}.cls-10,.cls-2,.cls-3,.cls-5{stroke-linecap:round;}.cls-10,.cls-2,.cls-3,.cls-5,.cls-8,.cls-9{stroke-linejoin:round;}.cls-3,.cls-4,.cls-8{fill:#fff;}.cls-5,.cls-6{fill:#d6daff;}.cls-7{fill:#4550e5;}.cls-10{stroke:#2d86fa;}.cls-11{fill:#2d86fa;}.cls-12{stroke-miterlimit:10;}</style></defs><title>hacker</title><path class="cls-1" d="M90,56.25a40,40,0,1,0-76.44,16.5H86.44A39.85,39.85,0,0,0,90,56.25Z"/><line class="cls-2" x1="11" y1="72.75" x2="89" y2="72.75"/><line class="cls-2" x1="6.5" y1="72.75" x2="9" y2="72.75"/><line class="cls-2" x1="91" y1="72.75" x2="93.5" y2="72.75"/><path class="cls-3" d="M58,49.75a15.46,15.46,0,0,1,9.9,3.57h0A14.57,14.57,0,0,0,70,45.81V33.75a12,12,0,0,0-12.22-12A12.26,12.26,0,0,0,46,34.15V44.49a17.37,17.37,0,0,0,2.17,8.77A15.48,15.48,0,0,1,58,49.75Z"/><path class="cls-2" d="M73.5,65.25a15.5,15.5,0,0,0-31,0v7.5h31Z"/><path class="cls-4" d="M58,49.75a15.5,15.5,0,0,0-15.5,15.5v7.5H67.34a2.93,2.93,0,0,1-2.76,2H61v6h3.58a9,9,0,0,0,2.92-.5,8.94,8.94,0,0,0,6-7.5h0v-7.5A15.5,15.5,0,0,0,58,49.75Z"/><path class="cls-2" d="M58,49.75a15.5,15.5,0,0,0-15.5,15.5v7.5H67.34a2.93,2.93,0,0,1-2.76,2H61v6h3.58a9,9,0,0,0,2.92-.5,8.94,8.94,0,0,0,6-7.5h0v-7.5A15.5,15.5,0,0,0,58,49.75Z"/><path class="cls-5" d="M66,52a13.88,13.88,0,0,1-1.77,3.75,18.66,18.66,0,0,1-3.39,3.87c-1.18,1-2.86,2.87-2.86,5.14,0-2.26-1.66-4.1-2.84-5.12a19,19,0,0,1-3.44-3.94A13.91,13.91,0,0,1,50,52.06S50,52,50,52a15.48,15.48,0,0,1,16,0Z"/><path class="cls-4" d="M61.5,52.25a5,5,0,0,1-7,0v-5.5h7Z"/><path class="cls-2" d="M61.5,46.75v5.5a5,5,0,0,1-7,0v-5.5Z"/><path class="cls-2" d="M67.5,63.75v8.08a2.92,2.92,0,0,1-2.92,2.92"/><line class="cls-2" x1="58" y1="64.75" x2="58" y2="72.75"/><path class="cls-4" d="M68,36.25v-2.5a10,10,0,0,0-20,0v2.5a2,2,0,0,0,0,4h.12a10,10,0,0,0,19.76,0H68a2,2,0,0,0,0-4Z"/><circle class="cls-6" cx="52.25" cy="40.5" r="1.25"/><circle class="cls-6" cx="63.75" cy="40.5" r="1.25"/><path class="cls-2" d="M55,43a4.38,4.38,0,0,0,6,0"/><path class="cls-2" d="M68,36.25v-2.5a10,10,0,0,0-20,0v2.5a2,2,0,0,0,0,4h.12a10,10,0,0,0,19.76,0H68a2,2,0,0,0,0-4Z"/><line class="cls-2" x1="55.49" y1="36.75" x2="53" y2="35.25"/><path class="cls-7" d="M54,37.25a1,1,0,1,0,1,1,1,1,0,0,0-1-1Z"/><line class="cls-2" x1="60.51" y1="36.75" x2="63" y2="35.25"/><path class="cls-7" d="M62,37.25a1,1,0,1,0,1,1,1,1,0,0,0-1-1Z"/><path class="cls-4" d="M57.78,21.75A12.26,12.26,0,0,0,46,34.15V44.49a17.41,17.41,0,0,0,2.17,8.78A13.31,13.31,0,0,0,54,58.53l-.06-.07q-.57-.6-1.08-1.23L52.7,57c-.34-.44-.68-.89-1-1.35s-.49-.81-.71-1.22l-.12-.23A12.91,12.91,0,0,1,50,52.06S50,52,50,52c-.73-2.46-1-5.65-1-11.08,0-3.66,2-8.16,9-8.16s9,5,9,8.16c0,5.43-.25,8.62-1,11.08q-.15.49-.33,1h0a13.11,13.11,0,0,1-1,2.13h0l-.3.5a.86.86,0,0,0-.1.16A19.59,19.59,0,0,1,62,58.5l-.2.23a14.89,14.89,0,0,0,6-5.31l.06-.1A14.57,14.57,0,0,0,70,45.81V33.75A12,12,0,0,0,57.78,21.75Z"/><path class="cls-2" d="M57.78,21.75A12.26,12.26,0,0,0,46,34.15V44.49a17.41,17.41,0,0,0,2.17,8.78A13.31,13.31,0,0,0,54,58.53l-.06-.07q-.57-.6-1.08-1.23L52.7,57c-.34-.44-.68-.89-1-1.35s-.49-.81-.71-1.22l-.12-.23A12.91,12.91,0,0,1,50,52.06S50,52,50,52c-.73-2.46-1-5.65-1-11.08,0-3.66,2-8.16,9-8.16s9,5,9,8.16c0,5.43-.25,8.62-1,11.08q-.15.49-.33,1h0a13.11,13.11,0,0,1-1,2.13h0l-.3.5a.86.86,0,0,0-.1.16A19.59,19.59,0,0,1,62,58.5l-.2.23a14.89,14.89,0,0,0,6-5.31l.06-.1A14.57,14.57,0,0,0,70,45.81V33.75A12,12,0,0,0,57.78,21.75Z"/><path class="cls-3" d="M61,74.75H57.5a3,3,0,0,0-3,3h0a3,3,0,0,0,3,3H61Z"/><line class="cls-2" x1="61" y1="80.75" x2="61" y2="74.75"/><path class="cls-1" d="M24.5,82.25c0,.83,9.45,1.5,21.1,1.5s21.1-.67,21.1-1.5-9.44-1.5-21.1-1.5S24.5,81.42,24.5,82.25Z"/><path class="cls-8" d="M50.29,77.75h2.34L47,60.56a1.18,1.18,0,0,0-1.12-.81H44.42Z"/><path class="cls-4" d="M27.42,77.75H50.29l-5.87-18H23.17a1.2,1.2,0,0,0-1,.48,1.16,1.16,0,0,0-.16,1.05Z"/><path class="cls-9" d="M27.42,77.75H50.29l-5.87-18H23.17a1.2,1.2,0,0,0-1,.48,1.16,1.16,0,0,0-.16,1.05Z"/><path class="cls-8" d="M27.5,77.75h24v3H29.81a2.32,2.32,0,0,1-2.31-2.34Z"/><path class="cls-8" d="M51.5,77.75H63v.66a2.34,2.34,0,0,1-2.34,2.34H51.5Z"/><path class="cls-9" d="M27.42,77.75H50.29l-5.87-18H23.17a1.2,1.2,0,0,0-1,.48,1.16,1.16,0,0,0-.16,1.05Z"/><path class="cls-8" d="M38.91,67.58c.14-.49.74-.49,1.08,0l1.83,2.63,1.84,2.63c.34.49.17,1.11-.32,1.11H38.19a.9.9,0,0,1-.77-1.11c.3-1,.45-1.58.74-2.63Z"/><path class="cls-10" d="M39.84,69.47c.12.6.18.89.31,1.49"/><path class="cls-11" d="M40.35,72c-.23,0-.37.22-.32.5a.62.62,0,0,0,.53.5.37.37,0,0,0,.32-.5.6.6,0,0,0-.53-.5Z"/><path class="cls-8" d="M33.91,67.62c.42,2.07-.66,3.75-2.41,3.74S28,69.67,27.59,67.6s.66-3.75,2.4-3.74S33.49,65.55,33.91,67.62Z"/><path class="cls-7" d="M29.4,66.13c-.23,0-.37.22-.32.5a.6.6,0,0,0,.52.5c.24,0,.38-.22.32-.5a.59.59,0,0,0-.52-.5Z"/><path class="cls-2" d="M30,68.86a1.43,1.43,0,0,0,1.17.88.84.84,0,0,0,.81-.88"/><path class="cls-12" d="M28.1,64.78l5.35,1.53"/><path class="cls-7" d="M31.62,65.61h-.44c-.34,0-.55.33-.47.74l.1.52a.89.89,0,0,0,.78.74H32c.35,0,.56-.33.48-.74l-.11-.51a.9.9,0,0,0-.77-.75Z"/></svg>